<svg width="18" height="18" viewBox="0 0 18 18" fill="none" xmlns="http://www.w3.org/2000/svg">
<path d="M8.71866 0C13.4999 0 17.4374 3.9375 17.4374 8.71875C17.4374 13.5352 13.4999 17.4375 8.71866 17.4375C3.90226 17.4375 -8.7738e-05 13.5352 -8.7738e-05 8.71875C-8.7738e-05 3.9375 3.90226 0 8.71866 0ZM8.71866 15.75C12.5858 15.75 15.7499 12.6211 15.7499 8.71875C15.7499 4.85156 12.5858 1.6875 8.71866 1.6875C4.81632 1.6875 1.68741 4.85156 1.68741 8.71875C1.68741 12.6211 4.81632 15.75 8.71866 15.75ZM12.4804 12.1992C12.1288 12.5508 10.8632 13.6758 8.82413 13.6758C5.90616 13.6758 3.8671 11.4961 3.8671 8.68359C3.8671 5.90625 6.01163 3.79688 8.78897 3.79688C10.7577 3.79688 11.9179 4.71094 12.2343 5.02734C12.3046 5.09766 12.3749 5.20312 12.3749 5.30859C12.3749 5.41406 12.3398 5.48438 12.3046 5.55469L11.6366 6.53906C11.5312 6.75 11.2148 6.78516 11.039 6.64453C10.7226 6.39844 9.91397 5.83594 8.85929 5.83594C7.17179 5.83594 6.1171 7.10156 6.1171 8.68359C6.1171 10.125 7.06632 11.6016 8.89444 11.6016C10.0194 11.6016 10.8632 10.9336 11.1796 10.6523C11.3905 10.4766 11.6718 10.5117 11.8124 10.7227L12.5155 11.6719C12.5507 11.7422 12.5858 11.8125 12.5858 11.918C12.5858 12.0234 12.5507 12.1289 12.4804 12.1992Z" fill="white"/>
</svg>
